<svg xmlns="http://www.w3.org/2000/svg" width="600" height="400" viewBox="0 0 600 400">
  <!-- Background -->
  <rect width="600" height="400" fill="#f8f9fa" />
  
  <!-- SEO analytics dashboard illustration -->
  <g transform="translate(50, 50)">
    <!-- Dashboard window -->
    <rect x="0" y="0" width="500" height="300" rx="5" ry="5" fill="#FFFFFF" stroke="#000000" stroke-width="2" />
    
    <!-- Dashboard header -->
    <rect x="0" y="0" width="500" height="40" rx="5" ry="5" fill="#F26522" />
    <text x="20" y="25" font-family="Arial, sans-serif" font-size="16" fill="#FFFFFF">SEO Analytics Dashboard</text>
    
    <!-- Dashboard content -->
    <g transform="translate(20, 60)">
      <!-- Traffic graph -->
      <rect x="0" y="0" width="300" height="150" fill="#f0f0f0" rx="3" ry="3" />
      <text x="10" y="20" font-family="Arial, sans-serif" font-size="12" fill="#000000">Organic Traffic Growth</text>
      
      <!-- Graph line -->
      <polyline points="10,120 50,100 90,110 130,90 170,70 210,50 250,30 290,40" 
                fill="none" stroke="#F26522" stroke-width="3" />
      
      <!-- X and Y axis -->
      <line x1="10" y1="130" x2="290" y2="130" stroke="#000000" stroke-width="1" />
      <line x1="10" y1="30" x2="10" y2="130" stroke="#000000" stroke-width="1" />
      
      <!-- Axis labels -->
      <text x="10" y="145" font-family="Arial, sans-serif" font-size="8" fill="#000000">Jan</text>
      <text x="50" y="145" font-family="Arial, sans-serif" font-size="8" fill="#000000">Feb</text>
      <text x="90" y="145" font-family="Arial, sans-serif" font-size="8" fill="#000000">Mar</text>
      <text x="130" y="145" font-family="Arial, sans-serif" font-size="8" fill="#000000">Apr</text>
      <text x="170" y="145" font-family="Arial, sans-serif" font-size="8" fill="#000000">May</text>
      <text x="210" y="145" font-family="Arial, sans-serif" font-size="8" fill="#000000">Jun</text>
      <text x="250" y="145" font-family="Arial, sans-serif" font-size="8" fill="#000000">Jul</text>
      <text x="290" y="145" font-family="Arial, sans-serif" font-size="8" fill="#000000">Aug</text>
    </g>
    
    <!-- Keyword rankings -->
    <g transform="translate(340, 60)">
      <rect x="0" y="0" width="140" height="150" fill="#f0f0f0" rx="3" ry="3" />
      <text x="10" y="20" font-family="Arial, sans-serif" font-size="12" fill="#000000">Keyword Rankings</text>
      
      <!-- Keyword list -->
      <rect x="10" y="30" width="120" height="20" fill="#FFFFFF" stroke="#ddd" stroke-width="1" />
      <rect x="10" y="50" width="120" height="20" fill="#FFFFFF" stroke="#ddd" stroke-width="1" />
      <rect x="10" y="70" width="120" height="20" fill="#FFFFFF" stroke="#ddd" stroke-width="1" />
      <rect x="10" y="90" width="120" height="20" fill="#FFFFFF" stroke="#ddd" stroke-width="1" />
      <rect x="10" y="110" width="120" height="20" fill="#FFFFFF" stroke="#ddd" stroke-width="1" />
      
      <!-- Ranking numbers -->
      <circle cx="20" cy="40" r="7" fill="#F26522" />
      <text x="20" y="43" font-family="Arial, sans-serif" font-size="8" fill="#FFFFFF" text-anchor="middle">1</text>
      
      <circle cx="20" cy="60" r="7" fill="#F26522" />
      <text x="20" y="63" font-family="Arial, sans-serif" font-size="8" fill="#FFFFFF" text-anchor="middle">2</text>
      
      <circle cx="20" cy="80" r="7" fill="#F26522" />
      <text x="20" y="83" font-family="Arial, sans-serif" font-size="8" fill="#FFFFFF" text-anchor="middle">3</text>
      
      <circle cx="20" cy="100" r="7" fill="#F26522" />
      <text x="20" y="103" font-family="Arial, sans-serif" font-size="8" fill="#FFFFFF" text-anchor="middle">5</text>
      
      <circle cx="20" cy="120" r="7" fill="#F26522" />
      <text x="20" y="123" font-family="Arial, sans-serif" font-size="8" fill="#FFFFFF" text-anchor="middle">7</text>
      
      <!-- Keyword text (simplified) -->
      <rect x="35" y="35" width="80" height="10" fill="#000000" opacity="0.7" />
      <rect x="35" y="55" width="70" height="10" fill="#000000" opacity="0.7" />
      <rect x="35" y="75" width="90" height="10" fill="#000000" opacity="0.7" />
      <rect x="35" y="95" width="60" height="10" fill="#000000" opacity="0.7" />
      <rect x="35" y="115" width="75" height="10" fill="#000000" opacity="0.7" />
    </g>
    
    <!-- Bottom metrics -->
    <g transform="translate(20, 230)">
      <!-- Metric boxes -->
      <rect x="0" y="0" width="110" height="50" fill="#F26522" opacity="0.1" rx="3" ry="3" />
      <rect x="120" y="0" width="110" height="50" fill="#F26522" opacity="0.1" rx="3" ry="3" />
      <rect x="240" y="0" width="110" height="50" fill="#F26522" opacity="0.1" rx="3" ry="3" />
      <rect x="360" y="0" width="110" height="50" fill="#F26522" opacity="0.1" rx="3" ry="3" />
      
      <!-- Metric values -->
      <text x="55" y="25" font-family="Arial, sans-serif" font-size="16" fill="#F26522" font-weight="bold" text-anchor="middle">+156%</text>
      <text x="55" y="40" font-family="Arial, sans-serif" font-size="10" fill="#000000" text-anchor="middle">Organic Traffic</text>
      
      <text x="175" y="25" font-family="Arial, sans-serif" font-size="16" fill="#F26522" font-weight="bold" text-anchor="middle">4.2s</text>
      <text x="175" y="40" font-family="Arial, sans-serif" font-size="10" fill="#000000" text-anchor="middle">Page Load Time</text>
      
      <text x="295" y="25" font-family="Arial, sans-serif" font-size="16" fill="#F26522" font-weight="bold" text-anchor="middle">89/100</text>
      <text x="295" y="40" font-family="Arial, sans-serif" font-size="10" fill="#000000" text-anchor="middle">SEO Score</text>
      
      <text x="415" y="25" font-family="Arial, sans-serif" font-size="16" fill="#F26522" font-weight="bold" text-anchor="middle">+43%</text>
      <text x="415" y="40" font-family="Arial, sans-serif" font-size="10" fill="#000000" text-anchor="middle">Conversion Rate</text>
    </g>
  </g>
</svg>