<svg xmlns="http://www.w3.org/2000/svg" width="600" height="400" viewBox="0 0 600 400">
  <!-- Background -->
  <rect width="600" height="400" fill="#f8f9fa" />
  
  <!-- Video editing software interface illustration -->
  <g transform="translate(50, 50)">
    <!-- Software window -->
    <rect x="0" y="0" width="500" height="300" rx="5" ry="5" fill="#333333" stroke="#000000" stroke-width="2" />
    
    <!-- Software header -->
    <rect x="0" y="0" width="500" height="30" rx="5" ry="5" fill="#222222" />
    <circle cx="15" cy="15" r="5" fill="#F26522" />
    <circle cx="35" cy="15" r="5" fill="#FFFFFF" opacity="0.5" />
    <circle cx="55" cy="15" r="5" fill="#FFFFFF" opacity="0.5" />
    <rect x="80" y="10" width="150" height="10" rx="5" ry="5" fill="#FFFFFF" opacity="0.2" />
    
    <!-- Video preview area -->
    <rect x="20" y="50" width="300" height="170" fill="#000000" />
    
    <!-- Video controls -->
    <rect x="20" y="230" width="300" height="20" fill="#444444" rx="3" ry="3" />
    <circle cx="35" cy="240" r="7" fill="#F26522" />
    <rect x="50" y="237" width="10" height="6" fill="#FFFFFF" />
    <rect x="70" y="237" width="10" height="6" fill="#FFFFFF" />
    <rect x="90" y="237" width="10" height="6" fill="#FFFFFF" />
    <rect x="110" y="237" width="10" height="6" fill="#FFFFFF" />
    
    <!-- Timeline -->
    <rect x="20" y="260" width="300" height="30" fill="#555555" rx="3" ry="3" />
    <rect x="30" y="265" width="80" height="20" fill="#F26522" rx="2" ry="2" />
    <rect x="120" y="265" width="60" height="20" fill="#F26522" rx="2" ry="2" />
    <rect x="190" y="265" width="40" height="20" fill="#F26522" rx="2" ry="2" />
    <rect x="240" y="265" width="70" height="20" fill="#F26522" rx="2" ry="2" />
    
    <!-- Tools panel -->
    <rect x="340" y="50" width="140" height="240" fill="#444444" rx="3" ry="3" />
    
    <!-- Tool icons -->
    <g transform="translate(360, 70)">
      <rect x="0" y="0" width="30" height="30" fill="#666666" rx="3" ry="3" />
      <rect x="50" y="0" width="30" height="30" fill="#666666" rx="3" ry="3" />
      <rect x="0" y="40" width="30" height="30" fill="#666666" rx="3" ry="3" />
      <rect x="50" y="40" width="30" height="30" fill="#666666" rx="3" ry="3" />
      <rect x="0" y="80" width="30" height="30" fill="#666666" rx="3" ry="3" />
      <rect x="50" y="80" width="30" height="30" fill="#666666" rx="3" ry="3" />
      <rect x="0" y="120" width="30" height="30" fill="#666666" rx="3" ry="3" />
      <rect x="50" y="120" width="30" height="30" fill="#666666" rx="3" ry="3" />
      <rect x="0" y="160" width="30" height="30" fill="#666666" rx="3" ry="3" />
      <rect x="50" y="160" width="30" height="30" fill="#666666" rx="3" ry="3" />
    </g>
    
    <!-- Video content -->
    <g transform="translate(20, 50)">
      <!-- Simplified video frame -->
      <rect x="0" y="0" width="300" height="170" fill="none" stroke="#F26522" stroke-width="2" />
      <circle cx="150" cy="85" r="40" fill="#F26522" opacity="0.5" />
      <polygon points="140,65 140,105 170,85" fill="#FFFFFF" />
    </g>
  </g>
</svg>