<svg xmlns="http://www.w3.org/2000/svg" width="600" height="400" viewBox="0 0 600 400">
  <!-- Background -->
  <rect width="600" height="400" fill="#f8f9fa" />
  
  <!-- E-commerce website illustration -->
  <g transform="translate(50, 50)">
    <!-- Browser window -->
    <rect x="0" y="0" width="500" height="300" rx="5" ry="5" fill="#FFFFFF" stroke="#000000" stroke-width="2" />
    
    <!-- Browser header -->
    <rect x="0" y="0" width="500" height="30" rx="5" ry="5" fill="#F26522" />
    <circle cx="15" cy="15" r="5" fill="#FFFFFF" />
    <circle cx="35" cy="15" r="5" fill="#FFFFFF" />
    <circle cx="55" cy="15" r="5" fill="#FFFFFF" />
    <rect x="80" y="10" width="300" height="10" rx="5" ry="5" fill="#FFFFFF" opacity="0.5" />
    
    <!-- Website content -->
    <g transform="translate(20, 50)">
      <!-- Header section -->
      <rect x="0" y="0" width="460" height="60" fill="#000000" />
      <rect x="10" y="20" width="100" height="20" fill="#F26522" />
      <rect x="350" y="20" width="30" height="5" fill="#FFFFFF" />
      <rect x="390" y="20" width="30" height="5" fill="#FFFFFF" />
      <rect x="430" y="20" width="30" height="5" fill="#FFFFFF" />
      
      <!-- Hero section -->
      <rect x="0" y="70" width="460" height="100" fill="#F26522" opacity="0.1" />
      <rect x="20" y="90" width="200" height="20" fill="#000000" />
      <rect x="20" y="120" width="150" height="10" fill="#000000" opacity="0.7" />
      <rect x="20" y="140" width="100" height="20" rx="10" ry="10" fill="#F26522" />
      
      <!-- Product grid -->
      <g transform="translate(0, 180)">
        <rect x="0" y="0" width="100" height="100" fill="#f0f0f0" />
        <rect x="120" y="0" width="100" height="100" fill="#f0f0f0" />
        <rect x="240" y="0" width="100" height="100" fill="#f0f0f0" />
        <rect x="360" y="0" width="100" height="100" fill="#f0f0f0" />
        
        <!-- Product details -->
        <rect x="10" y="70" width="80" height="10" fill="#000000" opacity="0.8" />
        <rect x="10" y="85" width="50" height="5" fill="#F26522" />
        
        <rect x="130" y="70" width="80" height="10" fill="#000000" opacity="0.8" />
        <rect x="130" y="85" width="50" height="5" fill="#F26522" />
        
        <rect x="250" y="70" width="80" height="10" fill="#000000" opacity="0.8" />
        <rect x="250" y="85" width="50" height="5" fill="#F26522" />
        
        <rect x="370" y="70" width="80" height="10" fill="#000000" opacity="0.8" />
        <rect x="370" y="85" width="50" height="5" fill="#F26522" />
      </g>
    </g>
  </g>
</svg>