<svg xmlns="http://www.w3.org/2000/svg" width="600" height="400" viewBox="0 0 600 400">
  <!-- Background -->
  <rect width="600" height="400" fill="#f8f9fa" />
  
  <!-- Corporate website illustration -->
  <g transform="translate(50, 50)">
    <!-- Browser window -->
    <rect x="0" y="0" width="500" height="300" rx="5" ry="5" fill="#FFFFFF" stroke="#000000" stroke-width="2" />
    
    <!-- Browser header -->
    <rect x="0" y="0" width="500" height="30" rx="5" ry="5" fill="#000000" />
    <circle cx="15" cy="15" r="5" fill="#F26522" />
    <circle cx="35" cy="15" r="5" fill="#FFFFFF" opacity="0.5" />
    <circle cx="55" cy="15" r="5" fill="#FFFFFF" opacity="0.5" />
    <rect x="80" y="10" width="300" height="10" rx="5" ry="5" fill="#FFFFFF" opacity="0.2" />
    
    <!-- Website content -->
    <g transform="translate(20, 50)">
      <!-- Header section -->
      <rect x="0" y="0" width="460" height="60" fill="#FFFFFF" />
      <rect x="10" y="20" width="100" height="20" fill="#000000" />
      <rect x="350" y="20" width="30" height="5" fill="#000000" opacity="0.7" />
      <rect x="390" y="20" width="30" height="5" fill="#000000" opacity="0.7" />
      <rect x="430" y="20" width="30" height="5" fill="#000000" opacity="0.7" />
      
      <!-- Hero section -->
      <rect x="0" y="70" width="460" height="100" fill="#000000" />
      <rect x="20" y="90" width="200" height="20" fill="#FFFFFF" />
      <rect x="20" y="120" width="150" height="10" fill="#FFFFFF" opacity="0.7" />
      <rect x="20" y="140" width="100" height="20" rx="10" ry="10" fill="#F26522" />
      
      <!-- Three column section -->
      <g transform="translate(0, 180)">
        <!-- Column 1 -->
        <rect x="0" y="0" width="140" height="5" fill="#000000" />
        <rect x="0" y="15" width="140" height="3" fill="#000000" opacity="0.7" />
        <rect x="0" y="25" width="140" height="3" fill="#000000" opacity="0.7" />
        <rect x="0" y="35" width="140" height="3" fill="#000000" opacity="0.7" />
        <rect x="0" y="50" width="70" height="15" rx="3" ry="3" fill="#F26522" />
        
        <!-- Column 2 -->
        <rect x="160" y="0" width="140" height="5" fill="#000000" />
        <rect x="160" y="15" width="140" height="3" fill="#000000" opacity="0.7" />
        <rect x="160" y="25" width="140" height="3" fill="#000000" opacity="0.7" />
        <rect x="160" y="35" width="140" height="3" fill="#000000" opacity="0.7" />
        <rect x="160" y="50" width="70" height="15" rx="3" ry="3" fill="#F26522" />
        
        <!-- Column 3 -->
        <rect x="320" y="0" width="140" height="5" fill="#000000" />
        <rect x="320" y="15" width="140" height="3" fill="#000000" opacity="0.7" />
        <rect x="320" y="25" width="140" height="3" fill="#000000" opacity="0.7" />
        <rect x="320" y="35" width="140" height="3" fill="#000000" opacity="0.7" />
        <rect x="320" y="50" width="70" height="15" rx="3" ry="3" fill="#F26522" />
      </g>
    </g>
  </g>
  
  <!-- Design elements -->
  <g opacity="0.1">
    <circle cx="50" cy="50" r="30" fill="#F26522" />
    <circle cx="550" cy="350" r="40" fill="#F26522" />
  </g>
</svg>