<svg xmlns="http://www.w3.org/2000/svg" width="200" height="200" viewBox="0 0 200 200">
  <!-- Background circle -->
  <circle cx="100" cy="100" r="100" fill="#f0f0f0" />
  
  <!-- Person illustration -->
  <g transform="translate(50, 40)">
    <!-- Head -->
    <circle cx="50" cy="50" r="40" fill="#F26522" opacity="0.8" />
    
    <!-- Face features -->
    <circle cx="35" cy="40" r="5" fill="#FFFFFF" />
    <circle cx="65" cy="40" r="5" fill="#FFFFFF" />
    <circle cx="35" cy="40" r="2" fill="#000000" />
    <circle cx="65" cy="40" r="2" fill="#000000" />
    
    <!-- Smile -->
    <path d="M30 60 Q50 80 70 60" stroke="#FFFFFF" stroke-width="3" fill="none" />
    
    <!-- Hair -->
    <path d="M20 30 Q50 0 80 30" stroke="#000000" stroke-width="15" fill="none" />
    
    <!-- Shoulders -->
    <path d="M10 120 Q50 90 90 120" stroke="#000000" stroke-width="10" fill="none" />
    
    <!-- Suit -->
    <path d="M40 100 L40 140" stroke="#000000" stroke-width="20" />
    <path d="M60 100 L60 140" stroke="#000000" stroke-width="20" />
    <rect x="30" y="90" width="40" height="20" fill="#000000" />
    
    <!-- Tie -->
    <path d="M50 90 L45 110 L50 130 L55 110 L50 90" fill="#F26522" />
  </g>
</svg>