<svg xmlns="http://www.w3.org/2000/svg" width="200" height="200" viewBox="0 0 200 200">
  <!-- Background circle -->
  <circle cx="100" cy="100" r="100" fill="#f0f0f0" />
  
  <!-- Person illustration (female) -->
  <g transform="translate(50, 40)">
    <!-- Head -->
    <circle cx="50" cy="50" r="40" fill="#F26522" opacity="0.8" />
    
    <!-- Face features -->
    <circle cx="35" cy="40" r="5" fill="#FFFFFF" />
    <circle cx="65" cy="40" r="5" fill="#FFFFFF" />
    <circle cx="35" cy="40" r="2" fill="#000000" />
    <circle cx="65" cy="40" r="2" fill="#000000" />
    
    <!-- Smile -->
    <path d="M30 60 Q50 80 70 60" stroke="#FFFFFF" stroke-width="3" fill="none" />
    
    <!-- Hair (longer) -->
    <path d="M10 50 Q10 10 50 10 Q90 10 90 50" stroke="#000000" stroke-width="15" fill="none" />
    <path d="M10 50 L10 80" stroke="#000000" stroke-width="15" fill="none" />
    <path d="M90 50 L90 80" stroke="#000000" stroke-width="15" fill="none" />
    
    <!-- Shoulders -->
    <path d="M10 120 Q50 90 90 120" stroke="#000000" stroke-width="10" fill="none" />
    
    <!-- Blouse -->
    <path d="M30 100 L30 140" stroke="#F26522" stroke-width="20" opacity="0.5" />
    <path d="M70 100 L70 140" stroke="#F26522" stroke-width="20" opacity="0.5" />
    <rect x="30" y="90" width="40" height="20" fill="#F26522" opacity="0.5" />
    
    <!-- Necklace -->
    <path d="M40 95 Q50 105 60 95" stroke="#FFFFFF" stroke-width="2" fill="none" />
    <circle cx="50" cy="105" r="3" fill="#FFFFFF" />
  </g>
</svg>