<svg xmlns="http://www.w3.org/2000/svg" width="100" height="100" viewBox="0 0 100 100">
  <!-- Background circle -->
  <circle cx="50" cy="50" r="50" fill="#F26522" opacity="0.1" />
  
  <!-- Result-Oriented Strategy Icon -->
  <g transform="translate(20, 20)">
    <!-- Target -->
    <circle cx="30" cy="30" r="25" fill="#FFFFFF" stroke="#000000" stroke-width="1" />
    <circle cx="30" cy="30" r="20" fill="#F26522" opacity="0.2" stroke="#000000" stroke-width="1" />
    <circle cx="30" cy="30" r="15" fill="#F26522" opacity="0.4" stroke="#000000" stroke-width="1" />
    <circle cx="30" cy="30" r="10" fill="#F26522" opacity="0.6" stroke="#000000" stroke-width="1" />
    <circle cx="30" cy="30" r="5" fill="#F26522" stroke="#000000" stroke-width="1" />
    
    <!-- Arrow -->
    <line x1="55" y1="5" x2="35" y2="25" stroke="#000000" stroke-width="2" />
    <polygon points="55,5 60,10 50,15" fill="#000000" />
    
    <!-- Bullseye -->
    <circle cx="30" cy="30" r="2" fill="#000000" />
    
    <!-- Growth chart -->
    <polyline points="5,55 15,45 25,50 35,40 45,30 55,25" fill="none" stroke="#F26522" stroke-width="2" />
    <circle cx="15" cy="45" r="2" fill="#F26522" />
    <circle cx="25" cy="50" r="2" fill="#F26522" />
    <circle cx="35" cy="40" r="2" fill="#F26522" />
    <circle cx="45" cy="30" r="2" fill="#F26522" />
    <circle cx="55" cy="25" r="2" fill="#F26522" />
  </g>
</svg>