<svg xmlns="http://www.w3.org/2000/svg" width="100" height="100" viewBox="0 0 100 100">
  <!-- Background circle -->
  <circle cx="50" cy="50" r="50" fill="#F26522" opacity="0.1" />
  
  <!-- 24/7 Support Icon -->
  <g transform="translate(20, 20)">
    <!-- Headset -->
    <path d="M30,10 C15,10 5,20 5,35 L5,45 C5,47 7,50 10,50 L15,50 C17,50 20,47 20,45 L20,35 C20,33 17,30 15,30 L10,30 C12,20 20,15 30,15 C40,15 48,20 50,30 L45,30 C43,30 40,33 40,35 L40,45 C40,47 43,50 45,50 L50,50 C53,50 55,47 55,45 L55,35 C55,20 45,10 30,10 Z" fill="#000000" />
    
    <!-- 24/7 text -->
    <text x="30" y="40" font-family="Arial, sans-serif" font-size="12" fill="#FFFFFF" text-anchor="middle">24/7</text>
    
    <!-- Support person -->
    <circle cx="30" cy="25" r="5" fill="#F26522" />
    <path d="M20,60 L40,60 C40,50 20,50 20,60 Z" fill="#F26522" />
    
    <!-- Chat bubbles -->
    <path d="M45,15 L55,15 L55,25 L50,20 L45,25 Z" fill="#F26522" />
    <path d="M5,15 L15,15 L15,25 L10,20 L5,25 Z" fill="#F26522" />
  </g>
</svg>