<svg xmlns="http://www.w3.org/2000/svg" width="100" height="100" viewBox="0 0 100 100">
  <!-- Background circle -->
  <circle cx="50" cy="50" r="50" fill="#F26522" opacity="0.1" />
  
  <!-- Timely Delivery Icon -->
  <g transform="translate(20, 20)">
    <!-- Clock face -->
    <circle cx="30" cy="30" r="25" fill="#FFFFFF" stroke="#000000" stroke-width="2" />
    
    <!-- Clock center -->
    <circle cx="30" cy="30" r="3" fill="#F26522" />
    
    <!-- Clock hands -->
    <line x1="30" y1="30" x2="30" y2="15" stroke="#000000" stroke-width="2" />
    <line x1="30" y1="30" x2="40" y2="30" stroke="#000000" stroke-width="2" />
    
    <!-- Clock markings -->
    <line x1="30" y1="5" x2="30" y2="10" stroke="#000000" stroke-width="2" />
    <line x1="30" y1="50" x2="30" y2="55" stroke="#000000" stroke-width="2" />
    <line x1="5" y1="30" x2="10" y2="30" stroke="#000000" stroke-width="2" />
    <line x1="50" y1="30" x2="55" y2="30" stroke="#000000" stroke-width="2" />
    
    <!-- Delivery elements -->
    <path d="M55,40 L60,40 L60,50 L55,50 Z" fill="#F26522" />
    <circle cx="55" cy="55" r="5" fill="#000000" />
    <circle cx="55" cy="55" r="2" fill="#FFFFFF" />
    
    <!-- Speed lines -->
    <path d="M45,15 L50,10" stroke="#F26522" stroke-width="2" />
    <path d="M50,20 L55,15" stroke="#F26522" stroke-width="2" />
    <path d="M55,25 L60,20" stroke="#F26522" stroke-width="2" />
  </g>
</svg>