<svg xmlns="http://www.w3.org/2000/svg" width="100" height="100" viewBox="0 0 100 100">
  <!-- Background circle -->
  <circle cx="50" cy="50" r="50" fill="#F26522" opacity="0.1" />
  
  <!-- Graphic Design Icon -->
  <g transform="translate(20, 20)">
    <!-- Pen tool -->
    <path d="M30,5 L45,20 L40,25 L25,10 Z" fill="#000000" />
    <line x1="25" y1="10" x2="5" y2="30" stroke="#000000" stroke-width="2" />
    <polygon points="5,30 10,35 0,40 5,30" fill="#000000" />
    
    <!-- Color palette -->
    <circle cx="50" cy="40" r="10" fill="#FFFFFF" stroke="#000000" stroke-width="2" />
    <path d="M50,30 A10,10 0 0,1 60,40 L50,40 Z" fill="#F26522" />
    <path d="M50,40 L60,40 A10,10 0 0,1 50,50 Z" fill="#000000" />
    <path d="M50,50 A10,10 0 0,1 40,40 L50,40 Z" fill="#F26522" opacity="0.5" />
    <path d="M40,40 L50,40 L50,30 A10,10 0 0,0 40,40 Z" fill="#000000" opacity="0.5" />
    
    <!-- Bezier curve -->
    <path d="M15,50 C25,30 40,70 55,50" fill="none" stroke="#F26522" stroke-width="2" />
    <circle cx="15" cy="50" r="3" fill="#F26522" />
    <circle cx="55" cy="50" r="3" fill="#F26522" />
  </g>
</svg>