<svg xmlns="http://www.w3.org/2000/svg" width="100" height="100" viewBox="0 0 100 100">
  <!-- Background circle -->
  <circle cx="50" cy="50" r="50" fill="#F26522" opacity="0.1" />
  
  <!-- Video Editing Icon -->
  <g transform="translate(20, 20)">
    <!-- Video camera body -->
    <rect x="5" y="15" width="40" height="30" rx="2" ry="2" fill="#000000" />
    
    <!-- Lens -->
    <circle cx="25" cy="30" r="10" fill="#F26522" />
    <circle cx="25" cy="30" r="5" fill="#000000" />
    
    <!-- Film strip -->
    <rect x="50" y="10" width="20" height="40" fill="none" stroke="#000000" stroke-width="2" />
    <line x1="50" y1="20" x2="70" y2="20" stroke="#000000" stroke-width="2" />
    <line x1="50" y1="30" x2="70" y2="30" stroke="#000000" stroke-width="2" />
    <line x1="50" y1="40" x2="70" y2="40" stroke="#000000" stroke-width="2" />
    
    <!-- Film perforations -->
    <circle cx="55" cy="15" r="2" fill="#000000" />
    <circle cx="65" cy="15" r="2" fill="#000000" />
    <circle cx="55" cy="25" r="2" fill="#000000" />
    <circle cx="65" cy="25" r="2" fill="#000000" />
    <circle cx="55" cy="35" r="2" fill="#000000" />
    <circle cx="65" cy="35" r="2" fill="#000000" />
    <circle cx="55" cy="45" r="2" fill="#000000" />
    <circle cx="65" cy="45" r="2" fill="#000000" />
    
    <!-- Play button -->
    <polygon points="20,25 20,35 30,30" fill="#F26522" />
  </g>
</svg>